<svg width="600" height="300" viewBox="0 0 600 300" fill="none" xmlns="http://www.w3.org/2000/svg">
<g clip-path="url(#clip0_1_3)">
<rect width="600" height="300" fill="white"/>
<rect x="3" y="3" width="594" height="294" fill="#1A1C29" stroke="#0A0B10" stroke-width="6"/>
<path d="M190.26 243.249C209.615 227.669 222 203.781 222 177C222 130.056 183.944 92 137 92C90.0558 92 52 130.056 52 177C52 203.781 64.3851 227.669 83.7402 243.249L137 151L190.26 243.249Z" fill="#11121B"/>
<g filter="url(#filter0_i_1_3)">
<circle cx="137" cy="177" r="78" fill="#363A55"/>
</g>
<path d="M516.26 243.249C535.615 227.669 548 203.781 548 177C548 130.056 509.944 92 463 92C416.056 92 378 130.056 378 177C378 203.781 390.385 227.669 409.74 243.249L463 151L516.26 243.249Z" fill="#11121B"/>
<g filter="url(#filter1_i_1_3)">
<circle cx="463" cy="177" r="78" fill="#363A55"/>
</g>
<path d="M128.396 48.2734C128.998 48.2734 129.561 48.1328 130.084 47.8516V46.1172H128.49C128.381 46.1172 128.287 46.0781 128.209 46C128.139 45.9219 128.104 45.8281 128.104 45.7188C128.104 45.6094 128.143 45.5156 128.221 45.4375C128.299 45.3594 128.389 45.3203 128.49 45.3203H130.389C130.514 45.3203 130.619 45.3672 130.705 45.4609C130.799 45.5469 130.846 45.6562 130.846 45.7891V47.957C130.846 48.0977 130.811 48.2227 130.74 48.332C130.678 48.4336 130.592 48.5078 130.482 48.5547C129.764 48.9141 129.033 49.0938 128.291 49.0938C127.283 49.0938 126.471 48.7734 125.854 48.1328C125.236 47.4922 124.924 46.668 124.916 45.6602C124.916 44.6445 125.24 43.8047 125.889 43.1406C126.506 42.5156 127.295 42.2031 128.256 42.2031C128.803 42.2031 129.264 42.2695 129.639 42.4023C130.014 42.5352 130.35 42.6992 130.646 42.8945C130.771 42.9648 130.834 43.0664 130.834 43.1992C130.834 43.332 130.799 43.4375 130.729 43.5156C130.666 43.5938 130.584 43.6328 130.482 43.6328C130.381 43.6328 130.299 43.6172 130.236 43.5859C129.619 43.2266 128.99 43.0469 128.35 43.0469C127.607 43.0469 126.998 43.2734 126.521 43.7266C126.029 44.2031 125.787 44.8477 125.795 45.6602C125.795 46.418 126.021 47.0391 126.475 47.5234C126.951 48.0234 127.592 48.2734 128.396 48.2734ZM137.912 48.4258C137.943 48.5039 137.959 48.5859 137.959 48.6719C137.959 48.75 137.92 48.832 137.842 48.918C137.771 49.0039 137.65 49.0469 137.479 49.0469C137.314 49.0469 137.193 48.957 137.115 48.7773L136.494 47.2891H133.225L132.615 48.7773C132.537 48.957 132.412 49.0469 132.24 49.0469C132.076 49.0469 131.955 49.0039 131.877 48.918C131.807 48.832 131.771 48.75 131.771 48.6719C131.771 48.5859 131.787 48.5039 131.818 48.4258L134.256 42.6484C134.365 42.3828 134.553 42.25 134.818 42.25H134.912C135.17 42.25 135.357 42.3828 135.475 42.6484L137.912 48.4258ZM136.166 46.4922L134.865 43.3633L133.564 46.4922H136.166ZM139.553 42.25C139.67 42.25 139.771 42.293 139.857 42.3789C139.951 42.4648 139.998 42.5703 139.998 42.6953V48.6133C139.998 48.7305 139.955 48.832 139.869 48.918C139.783 49.0039 139.678 49.0469 139.553 49.0469C139.436 49.0469 139.334 49.0039 139.248 48.918C139.162 48.832 139.119 48.7305 139.119 48.6133V42.6953C139.119 42.5781 139.162 42.4766 139.248 42.3906C139.334 42.2969 139.436 42.25 139.553 42.25ZM147.252 42.25C147.369 42.25 147.471 42.293 147.557 42.3789C147.643 42.4648 147.686 42.5703 147.686 42.6953V48.4258C147.686 48.5977 147.623 48.7461 147.498 48.8711C147.373 48.9883 147.225 49.0469 147.053 49.0469H146.936C146.725 49.0469 146.557 48.9609 146.432 48.7891L142.717 43.4219V48.6133C142.717 48.7305 142.674 48.832 142.588 48.918C142.502 49.0039 142.396 49.0469 142.271 49.0469C142.154 49.0469 142.053 49.0039 141.967 48.918C141.881 48.832 141.838 48.7305 141.838 48.6133V42.8828C141.838 42.7109 141.896 42.5625 142.014 42.4375C142.139 42.3125 142.291 42.25 142.471 42.25H142.588C142.791 42.25 142.971 42.3477 143.127 42.543L146.818 47.875V42.6953C146.818 42.5781 146.861 42.4766 146.947 42.3906C147.033 42.2969 147.135 42.25 147.252 42.25Z" fill="#8F94BA"/>
<path d="M73.0391 266.918C73.1484 266.918 73.2422 266.957 73.3203 267.035C73.3984 267.113 73.4375 267.203 73.4375 267.305C73.4375 267.414 73.3984 267.508 73.3203 267.586C73.2422 267.656 73.1484 267.691 73.0391 267.691H71.2344C71.125 267.691 71.0312 267.656 70.9531 267.586C70.8828 267.516 70.8477 267.422 70.8477 267.305C70.8477 267.195 70.8828 267.105 70.9531 267.035C71.0234 266.957 71.1172 266.918 71.2344 266.918H73.0391ZM76.7539 265.734C76.957 265.688 77.207 265.664 77.5039 265.664C77.8008 265.664 78.082 265.719 78.3477 265.828C78.6133 265.93 78.8398 266.078 79.0273 266.273C79.4414 266.695 79.6484 267.242 79.6484 267.914C79.6484 268.531 79.4375 269.047 79.0156 269.461C78.5781 269.883 78 270.094 77.2812 270.094C76.5469 270.094 75.9688 269.898 75.5469 269.508C75.0391 269.023 74.7461 268.309 74.668 267.363C74.6523 267.105 74.6445 266.832 74.6445 266.543C74.6445 266.246 74.6914 265.895 74.7852 265.488C74.8789 265.074 75.0312 264.703 75.2422 264.375C75.4609 264.039 75.7461 263.762 76.0977 263.543C76.457 263.316 76.8711 263.203 77.3398 263.203C77.8086 263.203 78.1758 263.246 78.4414 263.332C78.707 263.418 78.9375 263.512 79.1328 263.613C79.2734 263.691 79.3398 263.797 79.332 263.93C79.332 264.055 79.2969 264.156 79.2266 264.234C79.1562 264.312 79.0742 264.352 78.9805 264.352C78.8867 264.352 78.793 264.328 78.6992 264.281C78.3555 264.125 77.9648 264.047 77.5273 264.047C77.0898 264.047 76.7422 264.137 76.4844 264.316C76.2344 264.488 76.0352 264.699 75.8867 264.949C75.6523 265.371 75.5195 265.891 75.4883 266.508C75.7695 266.133 76.1914 265.875 76.7539 265.734ZM76.5195 269.133C76.7305 269.227 76.9688 269.273 77.2344 269.273C77.5 269.273 77.7227 269.238 77.9023 269.168C78.0898 269.098 78.2461 268.996 78.3711 268.863C78.6367 268.598 78.7695 268.266 78.7695 267.867C78.7773 267.461 78.6602 267.125 78.418 266.859C78.1836 266.594 77.8242 266.461 77.3398 266.461C76.8398 266.461 76.4258 266.586 76.0977 266.836C75.8633 267.008 75.6758 267.234 75.5352 267.516C75.6445 268.344 75.9727 268.883 76.5195 269.133ZM83.1289 263.203C83.5586 263.203 83.9336 263.285 84.2539 263.449C84.582 263.613 84.8516 263.852 85.0625 264.164C85.5 264.766 85.7188 265.594 85.7188 266.648C85.7188 267.711 85.5 268.543 85.0625 269.145C84.6016 269.777 83.9531 270.094 83.1172 270.094C82.2812 270.094 81.6328 269.777 81.1719 269.145C80.7344 268.543 80.5156 267.711 80.5156 266.648C80.5156 265.594 80.7344 264.766 81.1719 264.164C81.6328 263.523 82.2852 263.203 83.1289 263.203ZM83.1289 269.285C83.6914 269.285 84.1172 269.047 84.4062 268.57C84.7031 268.102 84.8516 267.461 84.8516 266.648C84.8516 265.836 84.7031 265.195 84.4062 264.727C84.1094 264.25 83.6758 264.016 83.1055 264.023C82.543 264.023 82.1172 264.262 81.8281 264.738C81.5391 265.207 81.3945 265.844 81.3945 266.648C81.3945 267.469 81.5391 268.109 81.8281 268.57C82.1328 269.047 82.5664 269.285 83.1289 269.285ZM90.5586 269.367C90.082 269.852 89.5352 270.094 88.918 270.094C88.3086 270.094 87.7773 269.879 87.3242 269.449C86.8398 268.965 86.5938 268.332 86.5859 267.551C86.5859 266.785 86.832 266.156 87.3242 265.664C87.7695 265.219 88.3008 265 88.918 265.008C89.5352 265.008 90.082 265.25 90.5586 265.734V263.379C90.5586 263.254 90.5977 263.152 90.6758 263.074C90.7617 262.988 90.8672 262.945 90.9922 262.945C91.1172 262.945 91.2188 262.988 91.2969 263.074C91.3828 263.152 91.4258 263.254 91.4258 263.379V269.613C91.4258 269.73 91.3828 269.832 91.2969 269.918C91.2188 270.004 91.1172 270.047 90.9922 270.047C90.8672 270.047 90.7617 270.004 90.6758 269.918C90.5977 269.832 90.5586 269.73 90.5586 269.613V269.367ZM90.5586 266.543C90.1211 266.059 89.6133 265.82 89.0352 265.828C88.3008 265.828 87.8203 266.152 87.5938 266.801C87.5156 267.02 87.4727 267.27 87.4648 267.551C87.4648 268.098 87.6133 268.531 87.9102 268.852C88.1836 269.141 88.5586 269.281 89.0352 269.273C89.6133 269.273 90.1211 269.035 90.5586 268.559V266.543ZM97.9531 265.043C97.9531 265.738 97.6406 266.227 97.0156 266.508C97.625 266.711 98.0273 267.051 98.2227 267.527C98.293 267.707 98.3281 267.922 98.3281 268.172C98.3281 268.414 98.2812 268.652 98.1875 268.887C98.1016 269.113 97.9609 269.312 97.7656 269.484C97.3516 269.828 96.7148 270 95.8555 270H93.5352C93.418 270 93.3164 269.957 93.2305 269.871C93.1445 269.785 93.1016 269.684 93.1016 269.566V263.742C93.1016 263.625 93.1445 263.523 93.2305 263.438C93.3164 263.344 93.418 263.297 93.5352 263.297H95.8086C96.5117 263.297 97.043 263.461 97.4023 263.789C97.7695 264.109 97.9531 264.527 97.9531 265.043ZM97.1211 265.102C97.1211 264.805 97 264.566 96.7578 264.387C96.5234 264.207 96.1836 264.117 95.7383 264.117H93.9805V266.191H95.5742C96.4023 266.191 96.8945 265.973 97.0508 265.535C97.0977 265.402 97.1211 265.258 97.1211 265.102ZM95.7734 269.18C96.6797 269.18 97.2227 268.961 97.4023 268.523C97.457 268.383 97.4844 268.234 97.4844 268.078C97.4844 267.695 97.3398 267.418 97.0508 267.246C96.7617 267.066 96.3398 266.977 95.7852 266.977H93.9805V269.18H95.7734Z" fill="#3F4258"/>
<path d="M179.205 264.926C179.205 265.699 178.818 266.234 178.045 266.531C178.654 266.68 179.072 267 179.299 267.492C179.393 267.695 179.439 267.949 179.439 268.254C179.439 268.559 179.373 268.824 179.24 269.051C179.115 269.277 178.939 269.469 178.713 269.625C178.26 269.938 177.674 270.094 176.955 270.094C176.252 270.094 175.584 269.965 174.951 269.707C174.779 269.629 174.693 269.508 174.693 269.344C174.693 269.242 174.729 269.152 174.799 269.074C174.869 268.988 174.947 268.945 175.033 268.945C175.127 268.945 175.236 268.973 175.361 269.027C175.752 269.191 176.229 269.27 176.791 269.262C177.588 269.262 178.131 269.078 178.42 268.711C178.521 268.57 178.568 268.398 178.561 268.195C178.561 267.391 177.857 266.984 176.451 266.977H176.287C176.178 266.977 176.084 266.938 176.006 266.859C175.928 266.781 175.889 266.688 175.889 266.578C175.889 266.469 175.928 266.375 176.006 266.297C176.084 266.219 176.178 266.18 176.287 266.18H176.357C177.678 266.18 178.334 265.793 178.326 265.02C178.326 264.723 178.201 264.484 177.951 264.305C177.709 264.117 177.33 264.023 176.814 264.023C176.291 264.023 175.795 264.129 175.326 264.34C175.279 264.363 175.213 264.375 175.127 264.375C175.041 264.375 174.963 264.344 174.893 264.281C174.83 264.211 174.799 264.113 174.799 263.988C174.799 263.855 174.861 263.758 174.986 263.695C175.588 263.367 176.24 263.203 176.943 263.203C177.646 263.203 178.197 263.355 178.596 263.66C179.002 263.957 179.205 264.379 179.205 264.926ZM183.178 263.203C183.607 263.203 183.982 263.285 184.303 263.449C184.631 263.613 184.9 263.852 185.111 264.164C185.549 264.766 185.768 265.594 185.768 266.648C185.768 267.711 185.549 268.543 185.111 269.145C184.65 269.777 184.002 270.094 183.166 270.094C182.33 270.094 181.682 269.777 181.221 269.145C180.783 268.543 180.564 267.711 180.564 266.648C180.564 265.594 180.783 264.766 181.221 264.164C181.682 263.523 182.334 263.203 183.178 263.203ZM183.178 269.285C183.74 269.285 184.166 269.047 184.455 268.57C184.752 268.102 184.9 267.461 184.9 266.648C184.9 265.836 184.752 265.195 184.455 264.727C184.158 264.25 183.725 264.016 183.154 264.023C182.592 264.023 182.166 264.262 181.877 264.738C181.588 265.207 181.443 265.844 181.443 266.648C181.443 267.469 181.588 268.109 181.877 268.57C182.182 269.047 182.615 269.285 183.178 269.285ZM190.607 269.367C190.131 269.852 189.584 270.094 188.967 270.094C188.357 270.094 187.826 269.879 187.373 269.449C186.889 268.965 186.643 268.332 186.635 267.551C186.635 266.785 186.881 266.156 187.373 265.664C187.818 265.219 188.35 265 188.967 265.008C189.584 265.008 190.131 265.25 190.607 265.734V263.379C190.607 263.254 190.646 263.152 190.725 263.074C190.811 262.988 190.916 262.945 191.041 262.945C191.166 262.945 191.268 262.988 191.346 263.074C191.432 263.152 191.475 263.254 191.475 263.379V269.613C191.475 269.73 191.432 269.832 191.346 269.918C191.268 270.004 191.166 270.047 191.041 270.047C190.916 270.047 190.811 270.004 190.725 269.918C190.646 269.832 190.607 269.73 190.607 269.613V269.367ZM190.607 266.543C190.17 266.059 189.662 265.82 189.084 265.828C188.35 265.828 187.869 266.152 187.643 266.801C187.564 267.02 187.521 267.27 187.514 267.551C187.514 268.098 187.662 268.531 187.959 268.852C188.232 269.141 188.607 269.281 189.084 269.273C189.662 269.273 190.17 269.035 190.607 268.559V266.543ZM198.002 265.043C198.002 265.738 197.689 266.227 197.064 266.508C197.674 266.711 198.076 267.051 198.271 267.527C198.342 267.707 198.377 267.922 198.377 268.172C198.377 268.414 198.33 268.652 198.236 268.887C198.15 269.113 198.01 269.312 197.814 269.484C197.4 269.828 196.764 270 195.904 270H193.584C193.467 270 193.365 269.957 193.279 269.871C193.193 269.785 193.15 269.684 193.15 269.566V263.742C193.15 263.625 193.193 263.523 193.279 263.438C193.365 263.344 193.467 263.297 193.584 263.297H195.857C196.561 263.297 197.092 263.461 197.451 263.789C197.818 264.109 198.002 264.527 198.002 265.043ZM197.17 265.102C197.17 264.805 197.049 264.566 196.807 264.387C196.572 264.207 196.232 264.117 195.787 264.117H194.029V266.191H195.623C196.451 266.191 196.943 265.973 197.1 265.535C197.146 265.402 197.17 265.258 197.17 265.102ZM195.822 269.18C196.729 269.18 197.271 268.961 197.451 268.523C197.506 268.383 197.533 268.234 197.533 268.078C197.533 267.695 197.389 267.418 197.1 267.246C196.811 267.066 196.389 266.977 195.834 266.977H194.029V269.18H195.822Z" fill="#3F4258"/>
<path d="M415.186 269.133C415.311 269.133 415.412 269.176 415.49 269.262C415.576 269.34 415.619 269.441 415.619 269.566C415.619 269.684 415.576 269.785 415.49 269.871C415.412 269.957 415.311 270 415.186 270H411.775C411.604 270 411.459 269.941 411.342 269.824C411.225 269.707 411.166 269.562 411.166 269.391V263.695C411.166 263.578 411.209 263.477 411.295 263.391C411.381 263.297 411.482 263.25 411.6 263.25C411.717 263.25 411.818 263.293 411.904 263.379C411.998 263.465 412.045 263.57 412.045 263.695V269.133H415.186Z" fill="#3F4258"/>
<path d="M518.236 269.613C518.236 269.73 518.193 269.832 518.107 269.918C518.029 270.004 517.924 270.047 517.791 270.047C517.666 270.047 517.561 270.008 517.475 269.93C517.396 269.852 517.357 269.746 517.357 269.613V269.32C517.357 268.805 517.299 268.426 517.182 268.184C517.072 267.941 516.916 267.75 516.713 267.609C516.518 267.461 516.236 267.387 515.869 267.387H513.889V269.613C513.889 269.73 513.846 269.832 513.76 269.918C513.674 270.004 513.568 270.047 513.443 270.047C513.326 270.047 513.225 270.004 513.139 269.918C513.053 269.832 513.01 269.73 513.01 269.613V263.742C513.01 263.625 513.053 263.523 513.139 263.438C513.225 263.344 513.326 263.297 513.443 263.297H515.682C516.557 263.297 517.221 263.484 517.674 263.859C518.096 264.211 518.303 264.672 518.295 265.242C518.295 265.609 518.189 265.957 517.979 266.285C517.775 266.605 517.459 266.836 517.029 266.977C517.49 267.094 517.826 267.43 518.037 267.984C518.178 268.344 518.244 268.742 518.236 269.18V269.613ZM515.623 266.555C516.162 266.555 516.596 266.453 516.924 266.25C517.252 266.039 517.416 265.727 517.416 265.312C517.416 264.93 517.287 264.641 517.029 264.445C516.725 264.227 516.24 264.117 515.576 264.117H513.889V266.555H515.623Z" fill="#3F4258"/>
<path d="M112.117 62.4062C112.977 62.4062 113.727 62.5703 114.367 62.8984C115.023 63.2266 115.562 63.7031 115.984 64.3281C116.859 65.5312 117.297 67.1875 117.297 69.2969C117.297 71.4219 116.859 73.0859 115.984 74.2891C115.062 75.5547 113.766 76.1875 112.094 76.1875C110.422 76.1875 109.125 75.5547 108.203 74.2891C107.328 73.0859 106.891 71.4219 106.891 69.2969C106.891 67.1875 107.328 65.5312 108.203 64.3281C109.125 63.0469 110.43 62.4062 112.117 62.4062ZM112.117 74.5703C113.242 74.5703 114.094 74.0938 114.672 73.1406C115.266 72.2031 115.562 70.9219 115.562 69.2969C115.562 67.6719 115.266 66.3906 114.672 65.4531C114.078 64.5 113.211 64.0312 112.07 64.0469C110.945 64.0469 110.094 64.5234 109.516 65.4766C108.938 66.4141 108.648 67.6875 108.648 69.2969C108.648 70.9375 108.938 72.2188 109.516 73.1406C110.125 74.0938 110.992 74.5703 112.117 74.5703ZM120.695 73.7969C121.008 73.7969 121.266 73.9062 121.469 74.125C121.688 74.3281 121.797 74.5781 121.797 74.875V74.9922C121.797 75.2891 121.688 75.5391 121.469 75.7422C121.266 75.9453 121.008 76.0469 120.695 76.0469H120.508C120.211 76.0469 119.961 75.9453 119.758 75.7422C119.555 75.5234 119.453 75.2734 119.453 74.9922V74.875C119.453 74.5781 119.555 74.3281 119.758 74.125C119.961 73.9062 120.211 73.7969 120.508 73.7969H120.695ZM129.133 62.4062C129.992 62.4062 130.742 62.5703 131.383 62.8984C132.039 63.2266 132.578 63.7031 133 64.3281C133.875 65.5312 134.312 67.1875 134.312 69.2969C134.312 71.4219 133.875 73.0859 133 74.2891C132.078 75.5547 130.781 76.1875 129.109 76.1875C127.438 76.1875 126.141 75.5547 125.219 74.2891C124.344 73.0859 123.906 71.4219 123.906 69.2969C123.906 67.1875 124.344 65.5312 125.219 64.3281C126.141 63.0469 127.445 62.4062 129.133 62.4062ZM129.133 74.5703C130.258 74.5703 131.109 74.0938 131.688 73.1406C132.281 72.2031 132.578 70.9219 132.578 69.2969C132.578 67.6719 132.281 66.3906 131.688 65.4531C131.094 64.5 130.227 64.0312 129.086 64.0469C127.961 64.0469 127.109 64.5234 126.531 65.4766C125.953 66.4141 125.664 67.6875 125.664 69.2969C125.664 70.9375 125.953 72.2188 126.531 73.1406C127.141 74.0938 128.008 74.5703 129.133 74.5703ZM149.406 74.7344C148.453 75.7031 147.359 76.1875 146.125 76.1875C144.906 76.1875 143.844 75.7578 142.938 74.8984C141.969 73.9297 141.477 72.6641 141.461 71.1016C141.461 69.5703 141.953 68.3125 142.938 67.3281C143.828 66.4375 144.891 66 146.125 66.0156C147.359 66.0156 148.453 66.5 149.406 67.4688V62.7578C149.406 62.5078 149.484 62.3047 149.641 62.1484C149.812 61.9766 150.023 61.8906 150.273 61.8906C150.523 61.8906 150.727 61.9766 150.883 62.1484C151.055 62.3047 151.141 62.5078 151.141 62.7578V75.2266C151.141 75.4609 151.055 75.6641 150.883 75.8359C150.727 76.0078 150.523 76.0938 150.273 76.0938C150.023 76.0938 149.812 76.0078 149.641 75.8359C149.484 75.6641 149.406 75.4609 149.406 75.2266V74.7344ZM149.406 69.0859C148.531 68.1172 147.516 67.6406 146.359 67.6562C144.891 67.6562 143.93 68.3047 143.477 69.6016C143.32 70.0391 143.234 70.5391 143.219 71.1016C143.219 72.1953 143.516 73.0625 144.109 73.7031C144.656 74.2812 145.406 74.5625 146.359 74.5469C147.516 74.5469 148.531 74.0703 149.406 73.1172V69.0859ZM164.195 66.0859C164.195 67.4766 163.57 68.4531 162.32 69.0156C163.539 69.4219 164.344 70.1016 164.734 71.0547C164.875 71.4141 164.945 71.8438 164.945 72.3438C164.945 72.8281 164.852 73.3047 164.664 73.7734C164.492 74.2266 164.211 74.625 163.82 74.9688C162.992 75.6562 161.719 76 160 76H155.359C155.125 76 154.922 75.9141 154.75 75.7422C154.578 75.5703 154.492 75.3672 154.492 75.1328V63.4844C154.492 63.25 154.578 63.0469 154.75 62.875C154.922 62.6875 155.125 62.5938 155.359 62.5938H159.906C161.312 62.5938 162.375 62.9219 163.094 63.5781C163.828 64.2188 164.195 65.0547 164.195 66.0859ZM162.531 66.2031C162.531 65.6094 162.289 65.1328 161.805 64.7734C161.336 64.4141 160.656 64.2344 159.766 64.2344H156.25V68.3828H159.438C161.094 68.3828 162.078 67.9453 162.391 67.0703C162.484 66.8047 162.531 66.5156 162.531 66.2031ZM159.836 74.3594C161.648 74.3594 162.734 73.9219 163.094 73.0469C163.203 72.7656 163.258 72.4688 163.258 72.1562C163.258 71.3906 162.969 70.8359 162.391 70.4922C161.812 70.1328 160.969 69.9531 159.859 69.9531H156.25V74.3594H159.836Z" fill="#22AACC"/>
<path d="M457.191 62.4062C458.051 62.4062 458.801 62.5703 459.441 62.8984C460.098 63.2266 460.637 63.7031 461.059 64.3281C461.934 65.5312 462.371 67.1875 462.371 69.2969C462.371 71.4219 461.934 73.0859 461.059 74.2891C460.137 75.5547 458.84 76.1875 457.168 76.1875C455.496 76.1875 454.199 75.5547 453.277 74.2891C452.402 73.0859 451.965 71.4219 451.965 69.2969C451.965 67.1875 452.402 65.5312 453.277 64.3281C454.199 63.0469 455.504 62.4062 457.191 62.4062ZM457.191 74.5703C458.316 74.5703 459.168 74.0938 459.746 73.1406C460.34 72.2031 460.637 70.9219 460.637 69.2969C460.637 67.6719 460.34 66.3906 459.746 65.4531C459.152 64.5 458.285 64.0312 457.145 64.0469C456.02 64.0469 455.168 64.5234 454.59 65.4766C454.012 66.4141 453.723 67.6875 453.723 69.2969C453.723 70.9375 454.012 72.2188 454.59 73.1406C455.199 74.0938 456.066 74.5703 457.191 74.5703ZM475.496 75.2266C475.496 75.4609 475.41 75.6641 475.238 75.8359C475.082 76.0078 474.871 76.0938 474.605 76.0938C474.355 76.0938 474.145 76.0156 473.973 75.8594C473.816 75.7031 473.738 75.4922 473.738 75.2266V74.6406C473.738 73.6094 473.621 72.8516 473.387 72.3672C473.168 71.8828 472.855 71.5 472.449 71.2188C472.059 70.9219 471.496 70.7734 470.762 70.7734H466.801V75.2266C466.801 75.4609 466.715 75.6641 466.543 75.8359C466.371 76.0078 466.16 76.0938 465.91 76.0938C465.676 76.0938 465.473 76.0078 465.301 75.8359C465.129 75.6641 465.043 75.4609 465.043 75.2266V63.4844C465.043 63.25 465.129 63.0469 465.301 62.875C465.473 62.6875 465.676 62.5938 465.91 62.5938H470.387C472.137 62.5938 473.465 62.9688 474.371 63.7188C475.215 64.4219 475.629 65.3438 475.613 66.4844C475.613 67.2188 475.402 67.9141 474.98 68.5703C474.574 69.2109 473.941 69.6719 473.082 69.9531C474.004 70.1875 474.676 70.8594 475.098 71.9688C475.379 72.6875 475.512 73.4844 475.496 74.3594V75.2266ZM470.27 69.1094C471.348 69.1094 472.215 68.9062 472.871 68.5C473.527 68.0781 473.855 67.4531 473.855 66.625C473.855 65.8594 473.598 65.2812 473.082 64.8906C472.473 64.4531 471.504 64.2344 470.176 64.2344H466.801V69.1094H470.27Z" fill="#22AACC"/>
<path d="M446.262 44.043C446.262 44.7383 445.949 45.2266 445.324 45.5078C445.934 45.7109 446.336 46.0508 446.531 46.5273C446.602 46.707 446.637 46.9219 446.637 47.1719C446.637 47.4141 446.59 47.6523 446.496 47.8867C446.41 48.1133 446.27 48.3125 446.074 48.4844C445.66 48.8281 445.023 49 444.164 49H441.844C441.727 49 441.625 48.957 441.539 48.8711C441.453 48.7852 441.41 48.6836 441.41 48.5664V42.7422C441.41 42.625 441.453 42.5234 441.539 42.4375C441.625 42.3438 441.727 42.2969 441.844 42.2969H444.117C444.82 42.2969 445.352 42.4609 445.711 42.7891C446.078 43.1094 446.262 43.5273 446.262 44.043ZM445.43 44.1016C445.43 43.8047 445.309 43.5664 445.066 43.3867C444.832 43.207 444.492 43.1172 444.047 43.1172H442.289V45.1914H443.883C444.711 45.1914 445.203 44.9727 445.359 44.5352C445.406 44.4023 445.43 44.2578 445.43 44.1016ZM444.082 48.1797C444.988 48.1797 445.531 47.9609 445.711 47.5234C445.766 47.3828 445.793 47.2344 445.793 47.0781C445.793 46.6953 445.648 46.418 445.359 46.2461C445.07 46.0664 444.648 45.9766 444.094 45.9766H442.289V48.1797H444.082ZM453.527 48.4258C453.559 48.5039 453.574 48.5859 453.574 48.6719C453.574 48.75 453.535 48.832 453.457 48.918C453.387 49.0039 453.266 49.0469 453.094 49.0469C452.93 49.0469 452.809 48.957 452.73 48.7773L452.109 47.2891H448.84L448.23 48.7773C448.152 48.957 448.027 49.0469 447.855 49.0469C447.691 49.0469 447.57 49.0039 447.492 48.918C447.422 48.832 447.387 48.75 447.387 48.6719C447.387 48.5859 447.402 48.5039 447.434 48.4258L449.871 42.6484C449.98 42.3828 450.168 42.25 450.434 42.25H450.527C450.785 42.25 450.973 42.3828 451.09 42.6484L453.527 48.4258ZM451.781 46.4922L450.48 43.3633L449.18 46.4922H451.781ZM458.754 48.1328C458.879 48.1328 458.98 48.1758 459.059 48.2617C459.145 48.3398 459.188 48.4414 459.188 48.5664C459.188 48.6836 459.145 48.7852 459.059 48.8711C458.98 48.957 458.879 49 458.754 49H455.344C455.172 49 455.027 48.9414 454.91 48.8242C454.793 48.707 454.734 48.5625 454.734 48.3906V42.6953C454.734 42.5781 454.777 42.4766 454.863 42.3906C454.949 42.2969 455.051 42.25 455.168 42.25C455.285 42.25 455.387 42.293 455.473 42.3789C455.566 42.4648 455.613 42.5703 455.613 42.6953V48.1328H458.754ZM465.727 48.4258C465.758 48.5039 465.773 48.5859 465.773 48.6719C465.773 48.75 465.734 48.832 465.656 48.918C465.586 49.0039 465.465 49.0469 465.293 49.0469C465.129 49.0469 465.008 48.957 464.93 48.7773L464.309 47.2891H461.039L460.43 48.7773C460.352 48.957 460.227 49.0469 460.055 49.0469C459.891 49.0469 459.77 49.0039 459.691 48.918C459.621 48.832 459.586 48.75 459.586 48.6719C459.586 48.5859 459.602 48.5039 459.633 48.4258L462.07 42.6484C462.18 42.3828 462.367 42.25 462.633 42.25H462.727C462.984 42.25 463.172 42.3828 463.289 42.6484L465.727 48.4258ZM463.98 46.4922L462.68 43.3633L461.379 46.4922H463.98ZM472.348 42.25C472.465 42.25 472.566 42.293 472.652 42.3789C472.738 42.4648 472.781 42.5703 472.781 42.6953V48.4258C472.781 48.5977 472.719 48.7461 472.594 48.8711C472.469 48.9883 472.32 49.0469 472.148 49.0469H472.031C471.82 49.0469 471.652 48.9609 471.527 48.7891L467.812 43.4219V48.6133C467.812 48.7305 467.77 48.832 467.684 48.918C467.598 49.0039 467.492 49.0469 467.367 49.0469C467.25 49.0469 467.148 49.0039 467.062 48.918C466.977 48.832 466.934 48.7305 466.934 48.6133V42.8828C466.934 42.7109 466.992 42.5625 467.109 42.4375C467.234 42.3125 467.387 42.25 467.566 42.25H467.684C467.887 42.25 468.066 42.3477 468.223 42.543L471.914 47.875V42.6953C471.914 42.5781 471.957 42.4766 472.043 42.3906C472.129 42.2969 472.23 42.25 472.348 42.25ZM479.449 47.8047C479.496 47.7812 479.566 47.7695 479.66 47.7695C479.754 47.7695 479.836 47.8086 479.906 47.8867C479.977 47.957 480.012 48.0391 480.012 48.1328C480.012 48.3047 479.938 48.4297 479.789 48.5078C479.492 48.6797 479.172 48.8203 478.828 48.9297C478.492 49.0391 478.082 49.0938 477.598 49.0938C477.121 49.0938 476.676 49.0156 476.262 48.8594C475.855 48.7031 475.504 48.4766 475.207 48.1797C474.566 47.5547 474.246 46.7109 474.246 45.6484C474.246 44.5938 474.566 43.75 475.207 43.1172C475.824 42.5078 476.625 42.2031 477.609 42.2031C478.086 42.2031 478.492 42.2617 478.828 42.3789C479.172 42.4961 479.434 42.6055 479.613 42.707C479.793 42.8008 479.902 42.8789 479.941 42.9414C479.988 42.9961 480.012 43.0703 480.012 43.1641C480.012 43.2578 479.977 43.3438 479.906 43.4219C479.836 43.4922 479.754 43.5273 479.66 43.5273C479.574 43.5273 479.504 43.5156 479.449 43.4922C479.191 43.3516 478.926 43.2422 478.652 43.1641C478.387 43.0781 478.055 43.0352 477.656 43.0352C477.258 43.0352 476.895 43.1055 476.566 43.2461C476.246 43.3789 475.977 43.5625 475.758 43.7969C475.328 44.2656 475.117 44.8828 475.125 45.6484C475.125 46.4141 475.336 47.0312 475.758 47.5C476.227 48.0078 476.871 48.2617 477.691 48.2617C478.066 48.2617 478.387 48.2227 478.652 48.1445C478.926 48.0586 479.191 47.9453 479.449 47.8047ZM485.613 48.1797C485.723 48.1797 485.816 48.2227 485.895 48.3086C485.98 48.3867 486.023 48.4844 486.023 48.6016C486.023 48.7109 485.98 48.8047 485.895 48.8828C485.816 48.9609 485.723 49 485.613 49H481.758C481.641 49 481.539 48.957 481.453 48.8711C481.367 48.7852 481.324 48.6836 481.324 48.5664V42.7422C481.324 42.625 481.367 42.5234 481.453 42.4375C481.539 42.3438 481.641 42.2969 481.758 42.2969H485.613C485.723 42.2969 485.816 42.3398 485.895 42.4258C485.98 42.5039 486.023 42.5977 486.023 42.707C486.023 42.8164 485.98 42.9141 485.895 43C485.816 43.0781 485.723 43.1172 485.613 43.1172H482.203V45.2383H485.262C485.371 45.2383 485.465 45.2773 485.543 45.3555C485.629 45.4336 485.672 45.5312 485.672 45.6484C485.672 45.7578 485.633 45.8555 485.555 45.9414C485.477 46.0195 485.379 46.0586 485.262 46.0586H482.203V48.1797H485.613Z" fill="#8F94BA"/>
<path d="M250 262H350L400 300H198.5L250 262Z" fill="#0A0B10"/>
<path d="M348.5 38L248.5 38L198.5 9.98629e-06L400 -7.62939e-06L348.5 38Z" fill="#0A0B10"/>
<path d="M249.5 262L206.5 294L249.5 268H350L392 294L350 262H249.5Z" fill="#363A55" fill-opacity="0.5"/>
<path d="M349 38L392 6.00002L349 32L248.5 32L206.5 6L248.5 38L349 38Z" fill="#363A55" fill-opacity="0.5"/>
<path d="M257.308 22V13.992C257.308 13.6093 257.401 13.264 257.588 12.956C257.774 12.6387 258.026 12.3867 258.344 12.2C258.661 12.0133 259.006 11.92 259.38 11.92H265.302C265.684 11.92 266.03 12.0133 266.338 12.2C266.655 12.3867 266.907 12.6387 267.094 12.956C267.29 13.264 267.388 13.6093 267.388 13.992V22H265.19V18.752H259.478V22H257.308ZM259.478 16.568H265.19V14.104H259.478V16.568ZM279.609 22L276.683 18.514H279.525L281.849 21.258V22H279.609ZM271.783 22V11.934H279.777C280.159 11.934 280.505 12.0273 280.813 12.214C281.13 12.4007 281.382 12.6527 281.569 12.97C281.765 13.2873 281.863 13.6327 281.863 14.006V16.61C281.863 16.9833 281.765 17.3287 281.569 17.646C281.382 17.9633 281.13 18.2153 280.813 18.402C280.505 18.5887 280.159 18.682 279.777 18.682L273.953 18.696V22H271.783ZM273.953 16.498H279.665V14.104H273.953V16.498ZM286.149 22V11.92H288.333V15.868H290.307L293.611 11.92H295.879V12.676L292.281 16.96L295.879 21.244V22H293.611L290.307 18.052H288.333V22H286.149ZM301.772 22C301.464 22 301.179 21.9253 300.918 21.776C300.666 21.6267 300.465 21.426 300.316 21.174C300.166 20.9127 300.092 20.628 300.092 20.32V13.6C300.092 13.292 300.166 13.012 300.316 12.76C300.465 12.4987 300.666 12.2933 300.918 12.144C301.179 11.9947 301.464 11.92 301.772 11.92H308.492C308.8 11.92 309.08 11.9947 309.332 12.144C309.593 12.2933 309.798 12.4987 309.948 12.76C310.097 13.012 310.172 13.292 310.172 13.6V14.006H309.038V13.6C309.038 13.4507 308.982 13.3247 308.87 13.222C308.767 13.11 308.641 13.054 308.492 13.054H301.772C301.622 13.054 301.492 13.11 301.38 13.222C301.277 13.3247 301.226 13.4507 301.226 13.6V20.32C301.226 20.4693 301.277 20.6 301.38 20.712C301.492 20.8147 301.622 20.866 301.772 20.866H308.492C308.641 20.866 308.767 20.8147 308.87 20.712C308.982 20.6 309.038 20.4693 309.038 20.32V17.828H306.546V16.68H310.172V20.32C310.172 20.628 310.097 20.9127 309.948 21.174C309.798 21.426 309.593 21.6267 309.332 21.776C309.08 21.9253 308.8 22 308.492 22H301.772ZM316.151 22C315.843 22 315.558 21.9253 315.297 21.776C315.045 21.6173 314.839 21.412 314.681 21.16C314.531 20.8987 314.457 20.614 314.457 20.306V17.366H321.569V15.574C321.569 15.4247 321.513 15.2987 321.401 15.196C321.298 15.084 321.172 15.028 321.023 15.028H314.457V13.88H321.023C321.34 13.88 321.625 13.9593 321.877 14.118C322.138 14.2673 322.343 14.4727 322.493 14.734C322.651 14.986 322.731 15.266 322.731 15.574V22H316.151ZM316.151 20.852H321.569V18.514H315.605V20.306C315.605 20.4553 315.656 20.586 315.759 20.698C315.871 20.8007 316.001 20.852 316.151 20.852ZM326.977 22V13.88H328.125V22H326.977ZM326.977 12.368V11.22H328.125V12.368H326.977ZM332.512 22V13.88H339.092C339.4 13.88 339.68 13.9593 339.932 14.118C340.194 14.2673 340.399 14.4727 340.548 14.734C340.707 14.986 340.786 15.266 340.786 15.574V22H339.638V15.574C339.638 15.4247 339.582 15.2987 339.47 15.196C339.368 15.084 339.242 15.028 339.092 15.028H334.22C334.071 15.028 333.94 15.084 333.828 15.196C333.716 15.2987 333.66 15.4247 333.66 15.574V22H332.512Z" fill="#2AC3DE"/>
<rect opacity="0.9" x="294" y="31" width="10" height="239" fill="#0A0B10"/>
<rect x="265" y="109" width="68" height="30.2222" rx="6" fill="#0A0B10"/>
<rect x="267.519" y="111.519" width="62.963" height="25.1852" rx="4" fill="#363A55" fill-opacity="0.5"/>
<path d="M289.02 120.125C289.229 120.125 289.402 120.198 289.539 120.344C289.685 120.49 289.758 120.663 289.758 120.863V127.549C289.758 127.686 289.708 127.804 289.607 127.904C289.507 128.005 289.389 128.055 289.252 128.055C289.115 128.055 288.997 128.005 288.896 127.904C288.796 127.804 288.746 127.686 288.746 127.549V121.191L286.148 127.59C286.094 127.727 286.003 127.84 285.875 127.932C285.747 128.014 285.602 128.055 285.438 128.055C285.273 128.055 285.128 128.014 285 127.932C284.872 127.85 284.777 127.736 284.713 127.59L282.129 121.191V127.549C282.129 127.686 282.079 127.804 281.979 127.904C281.878 128.005 281.755 128.055 281.609 128.055C281.473 128.055 281.354 128.005 281.254 127.904C281.154 127.804 281.104 127.686 281.104 127.549V120.863C281.104 120.663 281.172 120.49 281.309 120.344C281.454 120.198 281.632 120.125 281.842 120.125H282.211C282.357 120.125 282.489 120.171 282.607 120.262C282.735 120.353 282.831 120.462 282.895 120.59L285.438 126.934L287.98 120.59C288.035 120.462 288.122 120.353 288.24 120.262C288.368 120.171 288.509 120.125 288.664 120.125H289.02ZM292.547 121.191C293.258 120.444 294.206 120.07 295.391 120.07C296.576 120.07 297.523 120.444 298.234 121.191C298.927 121.93 299.287 122.896 299.314 124.09C299.287 125.275 298.927 126.241 298.234 126.988C297.523 127.736 296.576 128.109 295.391 128.109C294.206 128.109 293.258 127.736 292.547 126.988C291.836 126.241 291.471 125.275 291.453 124.09C291.471 122.905 291.836 121.939 292.547 121.191ZM295.391 127.152C296.302 127.152 297.018 126.861 297.537 126.277C298.048 125.712 298.303 124.983 298.303 124.09C298.303 123.197 298.048 122.467 297.537 121.902C297.008 121.31 296.293 121.018 295.391 121.027C294.479 121.027 293.759 121.319 293.23 121.902C292.72 122.467 292.469 123.197 292.479 124.09C292.479 124.983 292.729 125.712 293.23 126.277C293.759 126.861 294.479 127.152 295.391 127.152ZM307.312 120.125C307.449 120.125 307.568 120.175 307.668 120.275C307.768 120.376 307.818 120.499 307.818 120.645V127.33C307.818 127.531 307.745 127.704 307.6 127.85C307.454 127.986 307.281 128.055 307.08 128.055H306.943C306.697 128.055 306.501 127.954 306.355 127.754L302.021 121.492V127.549C302.021 127.686 301.971 127.804 301.871 127.904C301.771 128.005 301.648 128.055 301.502 128.055C301.365 128.055 301.247 128.005 301.146 127.904C301.046 127.804 300.996 127.686 300.996 127.549V120.863C300.996 120.663 301.064 120.49 301.201 120.344C301.347 120.198 301.525 120.125 301.734 120.125H301.871C302.108 120.125 302.318 120.239 302.5 120.467L306.807 126.688V120.645C306.807 120.508 306.857 120.389 306.957 120.289C307.057 120.18 307.176 120.125 307.312 120.125ZM310.607 121.191C311.318 120.444 312.266 120.07 313.451 120.07C314.636 120.07 315.584 120.444 316.295 121.191C316.988 121.93 317.348 122.896 317.375 124.09C317.348 125.275 316.988 126.241 316.295 126.988C315.584 127.736 314.636 128.109 313.451 128.109C312.266 128.109 311.318 127.736 310.607 126.988C309.896 126.241 309.532 125.275 309.514 124.09C309.532 122.905 309.896 121.939 310.607 121.191ZM313.451 127.152C314.363 127.152 315.078 126.861 315.598 126.277C316.108 125.712 316.363 124.983 316.363 124.09C316.363 123.197 316.108 122.467 315.598 121.902C315.069 121.31 314.354 121.018 313.451 121.027C312.54 121.027 311.82 121.319 311.291 121.902C310.781 122.467 310.53 123.197 310.539 124.09C310.539 124.983 310.79 125.712 311.291 126.277C311.82 126.861 312.54 127.152 313.451 127.152Z" fill="#3E4262"/>
<rect x="265" y="161.889" width="68" height="30.2222" rx="6" fill="#0A0B10"/>
<rect x="267.519" y="164.407" width="62.963" height="25.1852" rx="4" fill="#363A55" fill-opacity="0.5"/>
<path d="M293.609 184.36V181.112C292.872 181.047 292.223 180.855 291.663 180.538C291.103 180.211 290.669 179.773 290.361 179.222C290.053 178.662 289.899 178.004 289.899 177.248C289.899 176.483 290.044 175.825 290.333 175.274C290.622 174.714 291.042 174.275 291.593 173.958C292.153 173.631 292.825 173.44 293.609 173.384V170.36H294.813V173.384C295.56 173.449 296.208 173.645 296.759 173.972C297.319 174.299 297.753 174.737 298.061 175.288C298.369 175.839 298.523 176.492 298.523 177.248C298.523 178.004 298.374 178.662 298.075 179.222C297.776 179.773 297.352 180.211 296.801 180.538C296.25 180.855 295.588 181.047 294.813 181.112V184.36H293.609ZM293.609 180.132V174.378C293.04 174.434 292.573 174.579 292.209 174.812C291.854 175.045 291.593 175.367 291.425 175.778C291.266 176.179 291.187 176.669 291.187 177.248C291.187 177.817 291.271 178.307 291.439 178.718C291.607 179.129 291.868 179.455 292.223 179.698C292.578 179.931 293.04 180.076 293.609 180.132ZM294.813 180.132C295.373 180.067 295.83 179.917 296.185 179.684C296.549 179.441 296.815 179.119 296.983 178.718C297.16 178.307 297.249 177.817 297.249 177.248C297.249 176.389 297.048 175.722 296.647 175.246C296.255 174.77 295.644 174.485 294.813 174.392V180.132ZM308.201 179.988C308.347 179.988 308.465 180.038 308.557 180.139C308.657 180.23 308.707 180.348 308.707 180.494C308.707 180.631 308.657 180.749 308.557 180.85C308.465 180.95 308.347 181 308.201 181H304.223C304.022 181 303.854 180.932 303.717 180.795C303.58 180.658 303.512 180.49 303.512 180.289V173.645C303.512 173.508 303.562 173.389 303.662 173.289C303.762 173.18 303.881 173.125 304.018 173.125C304.154 173.125 304.273 173.175 304.373 173.275C304.482 173.376 304.537 173.499 304.537 173.645V179.988H308.201Z" fill="#3E4262"/>
<rect x="265" y="214.778" width="68" height="30.2222" rx="6" fill="#0A0B10"/>
<rect x="267.519" y="217.296" width="62.963" height="25.1852" rx="4" fill="#363A55" fill-opacity="0.5"/>
<path d="M292.843 237.36V234.112C292.106 234.047 291.457 233.855 290.897 233.538C290.337 233.211 289.903 232.773 289.595 232.222C289.287 231.662 289.133 231.004 289.133 230.248C289.133 229.483 289.278 228.825 289.567 228.274C289.857 227.714 290.277 227.275 290.827 226.958C291.387 226.631 292.059 226.44 292.843 226.384V223.36H294.047V226.384C294.794 226.449 295.443 226.645 295.993 226.972C296.553 227.299 296.987 227.737 297.295 228.288C297.603 228.839 297.757 229.492 297.757 230.248C297.757 231.004 297.608 231.662 297.309 232.222C297.011 232.773 296.586 233.211 296.035 233.538C295.485 233.855 294.822 234.047 294.047 234.112V237.36H292.843ZM292.843 233.132V227.378C292.274 227.434 291.807 227.579 291.443 227.812C291.089 228.045 290.827 228.367 290.659 228.778C290.501 229.179 290.421 229.669 290.421 230.248C290.421 230.817 290.505 231.307 290.673 231.718C290.841 232.129 291.103 232.455 291.457 232.698C291.812 232.931 292.274 233.076 292.843 233.132ZM294.047 233.132C294.607 233.067 295.065 232.917 295.419 232.684C295.783 232.441 296.049 232.119 296.217 231.718C296.395 231.307 296.483 230.817 296.483 230.248C296.483 229.389 296.283 228.722 295.881 228.246C295.489 227.77 294.878 227.485 294.047 227.392V233.132ZM308.844 233.549C308.844 233.686 308.794 233.804 308.693 233.904C308.602 234.005 308.479 234.055 308.324 234.055C308.178 234.055 308.055 234.009 307.955 233.918C307.864 233.827 307.818 233.704 307.818 233.549V233.207C307.818 232.605 307.75 232.163 307.613 231.881C307.486 231.598 307.303 231.375 307.066 231.211C306.839 231.038 306.51 230.951 306.082 230.951H303.771V233.549C303.771 233.686 303.721 233.804 303.621 233.904C303.521 234.005 303.398 234.055 303.252 234.055C303.115 234.055 302.997 234.005 302.896 233.904C302.796 233.804 302.746 233.686 302.746 233.549V226.699C302.746 226.562 302.796 226.444 302.896 226.344C302.997 226.234 303.115 226.18 303.252 226.18H305.863C306.884 226.18 307.659 226.398 308.188 226.836C308.68 227.246 308.921 227.784 308.912 228.449C308.912 228.878 308.789 229.283 308.543 229.666C308.306 230.04 307.937 230.309 307.436 230.473C307.973 230.609 308.365 231.001 308.611 231.648C308.775 232.068 308.853 232.533 308.844 233.043V233.549ZM305.795 229.98C306.424 229.98 306.93 229.862 307.312 229.625C307.695 229.379 307.887 229.014 307.887 228.531C307.887 228.085 307.736 227.747 307.436 227.52C307.08 227.264 306.515 227.137 305.74 227.137H303.771V229.98H305.795Z" fill="#3E4262"/>
</g>
<defs>
<filter id="filter0_i_1_3" x="59" y="99" width="156" height="159" filterUnits="userSpaceOnUse" color-interpolation-filters="sRGB">
<feFlood flood-opacity="0" result="BackgroundImageFix"/>
<feBlend mode="normal" in="SourceGraphic" in2="BackgroundImageFix" result="shape"/>
<feColorMatrix in="SourceAlpha" type="matrix" values="0 0 0 0 0 0 0 0 0 0 0 0 0 0 0 0 0 0 127 0" result="hardAlpha"/>
<feMorphology radius="1" operator="dilate" in="SourceAlpha" result="effect1_innerShadow_1_3"/>
<feOffset dy="4"/>
<feGaussianBlur stdDeviation="2"/>
<feComposite in2="hardAlpha" operator="arithmetic" k2="-1" k3="1"/>
<feColorMatrix type="matrix" values="0 0 0 0 0.560784 0 0 0 0 0.580392 0 0 0 0 0.729412 0 0 0 0.08 0"/>
<feBlend mode="normal" in2="shape" result="effect1_innerShadow_1_3"/>
</filter>
<filter id="filter1_i_1_3" x="385" y="99" width="156" height="159" filterUnits="userSpaceOnUse" color-interpolation-filters="sRGB">
<feFlood flood-opacity="0" result="BackgroundImageFix"/>
<feBlend mode="normal" in="SourceGraphic" in2="BackgroundImageFix" result="shape"/>
<feColorMatrix in="SourceAlpha" type="matrix" values="0 0 0 0 0 0 0 0 0 0 0 0 0 0 0 0 0 0 127 0" result="hardAlpha"/>
<feMorphology radius="1" operator="dilate" in="SourceAlpha" result="effect1_innerShadow_1_3"/>
<feOffset dy="4"/>
<feGaussianBlur stdDeviation="2"/>
<feComposite in2="hardAlpha" operator="arithmetic" k2="-1" k3="1"/>
<feColorMatrix type="matrix" values="0 0 0 0 0.560784 0 0 0 0 0.580392 0 0 0 0 0.729412 0 0 0 0.08 0"/>
<feBlend mode="normal" in2="shape" result="effect1_innerShadow_1_3"/>
</filter>
<clipPath id="clip0_1_3">
<rect width="600" height="300" fill="white"/>
</clipPath>
</defs>
</svg>
